<svg width="87" height="20" viewBox="0 0 87 20" fill="none" xmlns="http://www.w3.org/2000/svg">
<g clip-path="url(#clip0_41_42)">
<path d="M78.1821 6.29003C77.943 6.34507 77.6988 6.37527 77.4534 6.38013C77.2383 6.37235 77.0247 6.34215 76.8158 6.29003C75.9054 6.07403 74.9723 5.96766 74.0366 5.9732C73.0461 5.93204 72.0576 6.09288 71.1313 6.44594C70.205 6.79899 69.3602 7.33687 68.6483 8.02684C67.9365 8.7168 67.3726 9.54442 66.9908 10.4593C66.609 11.3742 66.4174 12.3572 66.4277 13.3485C66.4277 17.6475 68.9336 19.9999 71.6673 19.9999C72.5913 20.024 73.5057 19.8071 74.3206 19.3707C75.1355 18.9343 75.8227 18.2933 76.3148 17.5108L76.5426 19.6831H79.6861C79.5039 16.7415 79.5039 15.5653 79.5039 12.6692C79.5039 9.8633 79.5495 8.41182 79.7317 5.70093L78.1821 6.29003ZM76.3138 15.6118C76.0117 16.184 75.5594 16.6632 75.0056 16.9979C74.4518 17.3327 73.8174 17.5103 73.1703 17.5118C71.2564 17.5118 69.799 16.0643 69.799 12.7158C69.799 9.72964 71.7128 8.05538 73.9455 8.05538C74.7593 8.02553 75.5693 8.18022 76.3148 8.50786C76.3604 9.18707 76.4059 10.9059 76.4059 12.4445C76.3604 13.5752 76.3604 14.797 76.3148 15.6118H76.3138Z" fill="white"/>
<path d="M10.1603 8.87019C12.4756 8.87019 14.3524 7.00619 14.3524 4.70682C14.3524 2.40746 12.4756 0.543457 10.1603 0.543457C7.84512 0.543457 5.96826 2.40746 5.96826 4.70682C5.96826 7.00619 7.84512 8.87019 10.1603 8.87019Z" fill="white"/>
<path d="M4.19208 19.7752C6.5073 19.7752 8.38416 17.9112 8.38416 15.6119C8.38416 13.3125 6.5073 11.4485 4.19208 11.4485C1.87686 11.4485 0 13.3125 0 15.6119C0 17.9112 1.87686 19.7752 4.19208 19.7752Z" fill="white"/>
<path d="M16.1743 19.7752C18.4895 19.7752 20.3663 17.9112 20.3663 15.6119C20.3663 13.3125 18.4895 11.4485 16.1743 11.4485C13.859 11.4485 11.9822 13.3125 11.9822 15.6119C11.9822 17.9112 13.859 19.7752 16.1743 19.7752Z" fill="white"/>
<path d="M55.9495 8.82483C54.8682 8.43512 53.7275 8.23612 52.5782 8.2367C50.5277 8.2367 49.8445 8.82483 49.8445 9.59413C49.8445 10.2278 50.2089 10.6832 51.7128 11.2228L53.3534 11.8565C55.9505 12.8516 56.9525 14.0288 56.9525 15.9743C56.9525 18.3724 54.6752 20.0011 51.5762 20.0011C49.7701 20.0982 47.9685 19.7404 46.3366 18.9605L46.9742 16.7882C48.2863 17.4609 49.7375 17.8172 51.2119 17.8288C53.0802 17.8288 53.8544 17.1951 53.8544 16.2902C53.8544 15.4753 53.4901 14.9783 51.5772 14.2991L49.9366 13.6654C47.8406 12.8961 46.7475 11.81 46.7475 9.86443C46.7475 7.69215 48.798 6.01789 52.3515 6.01789C53.7907 5.97157 55.2264 6.18626 56.5891 6.65156L55.9495 8.82483Z" fill="white"/>
<path d="M63.7396 19.7742H60.2317C60.3683 17.2405 60.4139 15.7019 60.4139 13.1227C60.4139 10.3623 60.3683 9.05042 60.2317 6.38013H63.7396C63.603 9.09498 63.5574 10.3623 63.5574 13.1227C63.5574 15.7019 63.603 17.2395 63.7396 19.7742Z" fill="white"/>
<path d="M86.9307 19.7743H83.4228C83.5594 16.1109 83.605 13.9327 83.605 10.2267C83.605 6.24455 83.5594 3.93663 83.4228 0H86.9307C86.7941 3.93663 86.7485 6.19901 86.7485 10.2267C86.7941 13.9366 86.7941 16.0634 86.9307 19.7743Z" fill="white"/>
<path d="M25.1951 19.7741C28.3386 15.0682 33.8089 6.33554 37.2683 0.543457H40.5485C41.5961 6.0187 43.3733 13.8019 44.9683 19.7741H41.0079C40.6436 18.0999 40.2337 16.2444 39.9188 14.389H31.7555C30.6664 16.289 29.5228 18.19 28.4753 19.7741H25.1951ZM33.1228 11.991H39.501C38.9069 9.09494 38.3624 6.1494 37.9515 3.75534C36.6802 6.06425 34.8545 9.09593 33.1228 11.992V11.991Z" fill="white"/>
<path d="M62.0089 4.25347C63.1917 4.25347 64.1505 3.30129 64.1505 2.12673C64.1505 0.952171 63.1917 0 62.0089 0C60.8261 0 59.8673 0.952171 59.8673 2.12673C59.8673 3.30129 60.8261 4.25347 62.0089 4.25347Z" fill="white"/>
</g>
<defs>
<clipPath id="clip0_41_42">
<rect width="86.9307" height="20" fill="white"/>
</clipPath>
</defs>
</svg>
