<svg width="5em" height="5em" viewBox="0 0 40 40" fill="none" xmlns="http://www.w3.org/2000/svg">
<path d="M27.3 17.35C28.0667 17.35 28.7083 17.0917 29.225 16.575C29.7417 16.0583 30 15.4167 30 14.65C30 13.8833 29.7417 13.2417 29.225 12.725C28.7083 12.2083 28.0667 11.95 27.3 11.95C26.5333 11.95 25.8917 12.2083 25.375 12.725C24.8583 13.2417 24.6 13.8833 24.6 14.65C24.6 15.4167 24.8583 16.0583 25.375 16.575C25.8917 17.0917 26.5333 17.35 27.3 17.35ZM12.7 17.35C13.4667 17.35 14.1083 17.0917 14.625 16.575C15.1417 16.0583 15.4 15.4167 15.4 14.65C15.4 13.8833 15.1417 13.2417 14.625 12.725C14.1083 12.2083 13.4667 11.95 12.7 11.95C11.9333 11.95 11.2917 12.2083 10.775 12.725C10.2583 13.2417 10 13.8833 10 14.65C10 15.4167 10.2583 16.0583 10.775 16.575C11.2917 17.0917 11.9333 17.35 12.7 17.35ZM20 30.95C22.2 30.95 24.225 30.3583 26.075 29.175C27.925 27.9917 29.2667 26.3833 30.1 24.35H27.5C26.7333 25.6833 25.6833 26.7083 24.35 27.425C23.0167 28.1417 21.5833 28.5 20.05 28.5C18.4833 28.5 17.025 28.15 15.675 27.45C14.325 26.75 13.2833 25.7167 12.55 24.35H9.9C10.7667 26.3833 12.1167 27.9917 13.95 29.175C15.7833 30.3583 17.8 30.95 20 30.95ZM20 40C17.2667 40 14.6833 39.475 12.25 38.425C9.81667 37.375 7.69167 35.9417 5.875 34.125C4.05833 32.3083 2.625 30.1833 1.575 27.75C0.525 25.3167 0 22.7167 0 19.95C0 17.2167 0.525 14.6333 1.575 12.2C2.625 9.76667 4.05833 7.65 5.875 5.85C7.69167 4.05 9.81667 2.625 12.25 1.575C14.6833 0.525 17.2833 0 20.05 0C22.7833 0 25.3667 0.525 27.8 1.575C30.2333 2.625 32.35 4.05 34.15 5.85C35.95 7.65 37.375 9.76667 38.425 12.2C39.475 14.6333 40 17.2333 40 20C40 22.7333 39.475 25.3167 38.425 27.75C37.375 30.1833 35.95 32.3083 34.15 34.125C32.35 35.9417 30.2333 37.375 27.8 38.425C25.3667 39.475 22.7667 40 20 40ZM20 37C24.7333 37 28.75 35.3417 32.05 32.025C35.35 28.7083 37 24.7 37 20C37 15.2667 35.35 11.25 32.05 7.95C28.75 4.65 24.7333 3 20 3C15.3 3 11.2917 4.65 7.975 7.95C4.65833 11.25 3 15.2667 3 20C3 24.7 4.65833 28.7083 7.975 32.025C11.2917 35.3417 15.3 37 20 37Z" fill="#08A176"/>
</svg>
