<svg width="5em" height="5em" viewBox="0 0 40 40" fill="none" xmlns="http://www.w3.org/2000/svg">
<path d="M27.3 17.35C28.0667 17.35 28.7083 17.0917 29.225 16.575C29.7417 16.0583 30 15.4167 30 14.65C30 13.8833 29.7417 13.2417 29.225 12.725C28.7083 12.2083 28.0667 11.95 27.3 11.95C26.5333 11.95 25.8917 12.2083 25.375 12.725C24.8583 13.2417 24.6 13.8833 24.6 14.65C24.6 15.4167 24.8583 16.0583 25.375 16.575C25.8917 17.0917 26.5333 17.35 27.3 17.35ZM12.7 17.35C13.4667 17.35 14.1083 17.0917 14.625 16.575C15.1417 16.0583 15.4 15.4167 15.4 14.65C15.4 13.8833 15.1417 13.2417 14.625 12.725C14.1083 12.2083 13.4667 11.95 12.7 11.95C11.9333 11.95 11.2917 12.2083 10.775 12.725C10.2583 13.2417 10 13.8833 10 14.65C10 15.4167 10.2583 16.0583 10.775 16.575C11.2917 17.0917 11.9333 17.35 12.7 17.35ZM20 23.15C17.7667 23.15 15.7417 23.775 13.925 25.025C12.1083 26.275 10.7667 27.9333 9.9 30H12.55C13.2833 28.6 14.325 27.5167 15.675 26.75C17.025 25.9833 18.4833 25.6 20.05 25.6C21.6167 25.6 23.0583 25.9833 24.375 26.75C25.6917 27.5167 26.7333 28.6 27.5 30H30.1C29.2667 27.9333 27.9333 26.275 26.1 25.025C24.2667 23.775 22.2333 23.15 20 23.15ZM20 40C17.2667 40 14.6833 39.475 12.25 38.425C9.81667 37.375 7.69167 35.9417 5.875 34.125C4.05833 32.3083 2.625 30.1833 1.575 27.75C0.525 25.3167 0 22.7167 0 19.95C0 17.2167 0.525 14.6333 1.575 12.2C2.625 9.76667 4.05833 7.65 5.875 5.85C7.69167 4.05 9.81667 2.625 12.25 1.575C14.6833 0.525 17.2833 0 20.05 0C22.7833 0 25.3667 0.525 27.8 1.575C30.2333 2.625 32.35 4.05 34.15 5.85C35.95 7.65 37.375 9.76667 38.425 12.2C39.475 14.6333 40 17.2333 40 20C40 22.7333 39.475 25.3167 38.425 27.75C37.375 30.1833 35.95 32.3083 34.15 34.125C32.35 35.9417 30.2333 37.375 27.8 38.425C25.3667 39.475 22.7667 40 20 40ZM20 37C24.7333 37 28.75 35.3417 32.05 32.025C35.35 28.7083 37 24.7 37 20C37 15.2667 35.35 11.25 32.05 7.95C28.75 4.65 24.7333 3 20 3C15.3 3 11.2917 4.65 7.975 7.95C4.65833 11.25 3 15.2667 3 20C3 24.7 4.65833 28.7083 7.975 32.025C11.2917 35.3417 15.3 37 20 37Z" fill="#D20000"/>
</svg>
